<svg width="258" height="287" viewBox="0 0 258 287" fill="none" xmlns="http://www.w3.org/2000/svg">
<path d="M133.344 11.3079L246.344 78.4896C248.921 80.0216 250.5 82.7979 250.5 85.7959V200.852C250.5 203.86 248.911 206.643 246.321 208.172L133.321 274.885C130.655 276.459 127.345 276.459 124.679 274.885L11.6787 208.172C9.08904 206.643 7.5 203.86 7.5 200.852V85.7959C7.5 82.7979 9.07929 80.0216 11.6562 78.4896L124.656 11.3079C127.333 9.71624 130.667 9.71624 133.344 11.3079Z" stroke="#272C39" stroke-width="15" stroke-linejoin="round"/>
<path fill-rule="evenodd" clip-rule="evenodd" d="M123.527 46.1273L211.091 96.6807V197.79L193.477 207.959V117.083L146.891 143.98V234.856L129.278 245.024V144.277L41.9368 93.2323L59.2911 83.2136L137.806 128.885L184.725 101.797L105.913 56.2961L123.527 46.1273Z" fill="#03A9F4"/>
<path fill-rule="evenodd" clip-rule="evenodd" d="M116.695 244.401L99.0814 234.232C99.0814 210.021 99.0814 185.813 99.0814 161.604L53.5786 135.011C53.5786 159.327 53.5786 183.643 53.5786 207.959L35.9637 197.79V104.316L116.695 151.497V244.401Z" fill="#03A9F4"/>
<path fill-rule="evenodd" clip-rule="evenodd" d="M128.218 41.4364L215.782 91.9898V193.099L198.168 203.269V112.392L151.582 139.289V230.165L133.969 240.333V139.586L46.6277 88.5415L63.982 78.5227L142.497 124.194L189.416 97.106L110.604 51.6053L128.218 41.4364Z" fill="#2ECC71"/>
<path fill-rule="evenodd" clip-rule="evenodd" d="M121.386 239.71L103.772 229.541C103.772 205.33 103.772 181.122 103.772 156.913L58.2695 130.32C58.2695 154.636 58.2695 178.952 58.2695 203.269L40.6546 193.099V99.6256L121.386 146.806V239.71Z" fill="#2ECC71"/>
<path fill-rule="evenodd" clip-rule="evenodd" d="M124.309 40.6546L211.873 91.2079V192.317L194.259 202.487V111.61L147.673 138.507V229.383L130.06 239.551V138.804L42.7186 87.7596L60.0729 77.7409L138.588 123.413L185.507 96.3242L106.695 50.8234L124.309 40.6546Z" fill="#E91E63"/>
<path fill-rule="evenodd" clip-rule="evenodd" d="M117.477 238.928L99.8633 228.759C99.8633 204.549 99.8633 180.34 99.8633 156.131L54.3604 129.538C54.3604 153.855 54.3604 178.17 54.3604 202.487L36.7455 192.317V98.8437L117.477 146.024V238.928Z" fill="#E91E63"/>
<path fill-rule="evenodd" clip-rule="evenodd" d="M125.873 43.7818L213.436 94.3352V195.444L195.823 205.614V114.738L149.237 141.634V232.511L131.624 242.678V141.931L44.2822 90.8869L61.6365 80.8681L140.152 126.54L187.07 99.4514L108.259 53.9507L125.873 43.7818Z" fill="#272C39"/>
<path fill-rule="evenodd" clip-rule="evenodd" d="M119.041 242.055L101.427 231.886C101.427 207.676 101.427 183.468 101.427 159.258L55.924 132.665C55.924 156.982 55.924 181.297 55.924 205.614L38.3091 195.444V101.971L119.041 149.151V242.055Z" fill="#272C39"/>
</svg>
